<!DOCTYPE svg PUBLIC "-//W3C//DTD SVG 20010904//EN" "http://www.w3.org/TR/2001/REC-SVG-20010904/DTD/svg10.dtd">
<svg version="1.0" xmlns="http://www.w3.org/2000/svg" width="1200px" height="1200px" viewBox="0 0 12000 12000" preserveAspectRatio="xMidYMid meet">
<g id="layer101" fill="#000000" stroke="none">
 <path d="M461 11993 c-1 -10 -53 -13 -227 -13 l-226 0 38 -67 c321 -581 834 -1158 1399 -1573 228 -168 501 -334 760 -461 88 -44 176 -87 195 -97 l35 -17 3 -1650 c1 -908 0 -1661 -3 -1673 l-6 -24 -382 4 c-433 5 -495 13 -632 77 -182 86 -307 226 -371 416 -23 70 -27 97 -28 213 l-1 132 -141 0 -141 0 -26 -58 c-46 -101 -105 -292 -133 -427 -36 -174 -44 -445 -20 -613 97 -656 487 -1097 1113 -1258 168 -43 336 -64 578 -72 l190 -7 0 -1460 c0 -1384 -1 -1464 -19 -1545 -39 -183 -105 -304 -221 -407 -59 -53 -168 -113 -245 -134 -62 -17 -252 -17 -320 0 -91 23 -218 94 -297 166 -128 117 -201 252 -231 432 l-17 98 -178 3 -177 2 0 -39 c0 -110 45 -318 100 -471 247 -675 914 -1174 1703 -1275 153 -19 431 -19 589 1 412 52 794 235 1054 505 208 217 334 466 399 784 30 152 45 350 45 628 0 143 4 217 10 217 10 0 70 -45 416 -312 91 -70 174 -134 185 -141 18 -13 19 -36 21 -793 l3 -779 220 0 220 0 5 603 5 603 275 -212 c151 -117 334 -258 407 -313 72 -56 370 -285 663 -511 292 -226 551 -425 574 -443 l44 -32 388 492 c214 271 475 603 582 738 1293 1639 1492 1893 1491 1904 0 6 -32 36 -71 66 -39 30 -234 184 -432 342 -199 158 -408 325 -465 370 -57 46 -109 88 -115 93 -6 6 -51 42 -101 80 -49 38 -92 72 -95 75 -6 6 -58 47 -445 355 -652 518 -815 650 -815 656 0 4 39 25 88 48 212 102 508 288 707 447 147 117 459 431 569 574 278 359 460 710 622 1195 65 196 91 289 209 760 51 204 104 411 118 460 156 556 358 968 636 1297 83 98 264 278 343 342 l48 38 140 -101 c77 -56 231 -166 343 -246 111 -80 287 -206 390 -280 104 -74 191 -135 193 -135 2 0 4 96 4 213 l-1 212 -57 39 c-31 22 -124 90 -207 151 -82 61 -184 136 -225 166 -41 30 -82 59 -90 66 -8 7 -43 32 -77 57 -57 42 -147 108 -213 156 -14 10 -45 33 -70 52 -25 18 -88 65 -140 103 -52 38 -99 73 -105 77 -10 9 -291 215 -355 262 -19 14 -93 68 -165 121 -169 125 -169 125 -245 181 -137 100 -175 129 -178 137 -2 4 -7 7 -12 7 -4 0 -62 41 -128 90 -67 50 -126 90 -131 90 -20 0 -177 -83 -295 -157 -409 -254 -733 -616 -961 -1076 -72 -143 -151 -333 -195 -467 -23 -71 -36 -91 -48 -75 -8 11 -60 51 -247 186 -71 51 -134 97 -140 102 -9 8 -210 154 -610 445 -88 64 -165 121 -171 127 -7 5 -65 48 -129 95 -65 47 -163 118 -219 159 -56 41 -123 91 -151 111 -27 20 -75 54 -105 76 -30 22 -84 62 -120 88 -36 26 -72 53 -80 59 -8 7 -58 43 -110 81 -136 99 -237 174 -296 218 -28 21 -56 38 -63 38 -7 0 -47 -24 -89 -53 -98 -67 -277 -179 -367 -230 -90 -51 -385 -201 -428 -217 -17 -7 -60 -26 -95 -42 -72 -33 -186 -76 -317 -119 -49 -17 -97 -34 -107 -39 -9 -5 -60 -21 -115 -35 -54 -14 -116 -32 -138 -40 -22 -7 -98 -25 -170 -40 -71 -14 -143 -30 -160 -35 -16 -5 -82 -16 -145 -25 -63 -8 -146 -19 -185 -25 -179 -24 -453 -33 -647 -21 -106 7 -218 16 -248 21 -30 5 -104 16 -165 25 -60 9 -119 20 -130 24 -11 5 -65 19 -120 31 -97 22 -329 96 -390 124 -16 8 -54 24 -83 35 -142 56 -459 242 -556 326 -6 6 -32 26 -56 45 -163 125 -449 434 -483 520 -3 9 -6 10 -6 3z m7146 -1949 c169 -125 338 -249 374 -275 l65 -49 -108 -433 c-138 -552 -152 -604 -231 -852 -120 -373 -289 -721 -481 -990 -201 -282 -494 -559 -766 -725 -112 -67 -345 -181 -442 -214 l-78 -27 -48 38 c-27 21 -81 63 -120 93 l-71 55 -1 1421 0 1422 37 7 c58 11 414 131 537 181 292 120 644 312 888 485 67 48 126 88 130 88 3 1 145 -101 315 -225z m-2357 -4174 c0 -1947 -4 -3540 -8 -3540 -7 0 -75 54 -480 379 l-142 115 0 3257 0 3257 63 6 c34 3 103 8 152 11 112 8 385 42 393 49 3 4 9 6 14 6 4 0 8 -1593 8 -3540z m968 -107 c279 -224 687 -552 907 -728 220 -177 542 -435 715 -574 173 -138 316 -257 318 -264 1 -7 -75 -113 -169 -237 -94 -124 -285 -376 -425 -560 -140 -184 -352 -464 -471 -622 -120 -157 -373 -491 -563 -742 -190 -251 -351 -456 -357 -456 -7 0 -21 8 -31 17 -9 10 -113 94 -230 187 l-212 170 0 2108 c0 1159 2 2108 5 2108 3 0 234 -183 513 -407z"/>
 </g>

</svg>